<?xml version="1.0" encoding="iso-8859-1"?>

<svg version="1.1" id="Layer_1" xmlns="http://www.w3.org/2000/svg" xmlns:xlink="http://www.w3.org/1999/xlink" 
	 viewBox="0 0 512 512" xml:space="preserve">
<path style="fill:#5B5D6E;" d="M14.392,230.653h73.951l0.502-0.092c0.241-0.044,0.464-0.065,0.685-0.065
	c0.212,0,0.433,0.021,0.673,0.065l0.502,0.092h69.856l0.502-0.092c0.241-0.044,0.464-0.065,0.685-0.065
	c0.212,0,0.433,0.021,0.673,0.065l0.502,0.092h66.986v-37.858H28.877L14.392,230.653z"/>
<g>
	<rect x="66.588" y="102.141" style="fill:#C7CFE2;" width="29.236" height="83.55"/>
	<rect x="138.549" y="102.141" style="fill:#C7CFE2;" width="29.236" height="83.55"/>
</g>
<g>
	<rect x="21.357" y="380.993" style="fill:#A0D2F0;" width="64.801" height="64.969"/>
	<rect x="92.902" y="380.993" style="fill:#A0D2F0;" width="65.475" height="64.969"/>
	<rect x="165.121" y="380.993" style="fill:#A0D2F0;" width="64.79" height="64.969"/>
	<rect x="165.121" y="308.774" style="fill:#A0D2F0;" width="64.79" height="65.475"/>
	<rect x="92.902" y="308.774" style="fill:#A0D2F0;" width="65.475" height="65.475"/>
	<rect x="21.357" y="308.774" style="fill:#A0D2F0;" width="64.801" height="65.475"/>
	<path style="fill:#A0D2F0;" d="M27.719,237.416l-0.565,0.117c-0.012,0.002-0.123,0.024-0.438,0.038l-5.358,0.251v64.207h64.801
		v-64.632H28.382L27.719,237.416z"/>
	<rect x="92.902" y="237.397" style="fill:#A0D2F0;" width="65.475" height="64.632"/>
	<rect x="165.121" y="237.397" style="fill:#A0D2F0;" width="64.79" height="64.632"/>
</g>
<path style="fill:#9FA7BF;" d="M236.655,445.963h109.83V94.273h-109.83L236.655,445.963L236.655,445.963z M302.086,135.728
	c0-1.859,1.513-3.372,3.372-3.372c1.859,0,3.372,1.513,3.372,3.372v17.692c0,1.859-1.513,3.372-3.372,3.372
	c-1.859,0-3.372-1.513-3.372-3.372V135.728z M302.086,199.214c0-1.859,1.513-3.372,3.372-3.372c1.859,0,3.372,1.513,3.372,3.372
	v17.704c0,1.859-1.513,3.372-3.372,3.372c-1.859,0-3.372-1.513-3.372-3.372V199.214z M302.086,261.755
	c0-1.859,1.513-3.372,3.372-3.372c1.859,0,3.372,1.513,3.372,3.372v17.704c0,1.859-1.513,3.372-3.372,3.372
	c-1.859,0-3.372-1.513-3.372-3.372V261.755z M302.086,325.252c0-1.859,1.513-3.372,3.372-3.372c1.859,0,3.372,1.513,3.372,3.372
	v17.704c0,1.859-1.513,3.372-3.372,3.372c-1.859,0-3.372-1.513-3.372-3.372V325.252z M302.086,387.827
	c0-1.859,1.513-3.372,3.372-3.372c1.859,0,3.372,1.513,3.372,3.372v17.704c0,1.859-1.513,3.372-3.372,3.372
	c-1.859,0-3.372-1.513-3.372-3.372V387.827z M275.626,135.728c0-1.859,1.513-3.372,3.372-3.372s3.372,1.513,3.372,3.372v17.692
	c0,1.859-1.513,3.372-3.372,3.372s-3.372-1.513-3.372-3.372V135.728z M275.626,199.214c0-1.859,1.513-3.372,3.372-3.372
	s3.372,1.513,3.372,3.372v17.704c0,1.859-1.513,3.372-3.372,3.372s-3.372-1.513-3.372-3.372V199.214z M275.626,261.755
	c0-1.859,1.513-3.372,3.372-3.372s3.372,1.513,3.372,3.372v17.704c0,1.859-1.513,3.372-3.372,3.372s-3.372-1.513-3.372-3.372
	V261.755z M275.626,325.252c0-1.859,1.513-3.372,3.372-3.372s3.372,1.513,3.372,3.372v17.704c0,1.859-1.513,3.372-3.372,3.372
	s-3.372-1.513-3.372-3.372V325.252z M275.626,387.827c0-1.859,1.513-3.372,3.372-3.372s3.372,1.513,3.372,3.372v17.704
	c0,1.859-1.513,3.372-3.372,3.372s-3.372-1.513-3.372-3.372V387.827z"/>
<path style="fill:#8F96AC;" d="M354.545,445.963h28v-59.248c0-1.859,1.513-3.372,3.372-3.372h72.13c1.859,0,3.372,1.513,3.372,3.372
	v59.248h29.506V327.624h-136.38V445.963z"/>
<g>
	<rect x="389.289" y="390.087" style="fill:#5B5D6E;" width="65.385" height="55.876"/>
	<polygon style="fill:#5B5D6E;" points="483.381,282.831 353.229,282.831 353.229,320.88 497.948,320.88 	"/>
</g>
<g>
	<rect x="138.549" y="66.037" style="fill:#FF6464;" width="29.236" height="29.36"/>
	<rect x="66.588" y="66.037" style="fill:#FF6464;" width="29.236" height="29.36"/>
</g>
<path d="M305.458,162.412c-4.968,0-8.992-4.024-8.992-8.992v-17.692c0-4.968,4.024-8.992,8.992-8.992
	c4.968,0,8.992,4.024,8.992,8.992v17.692C314.45,158.388,310.426,162.412,305.458,162.412z"/>
<path d="M305.458,225.909c-4.968,0-8.992-4.024-8.992-8.992v-17.704c0-4.957,4.024-8.992,8.992-8.992
	c4.968,0,8.992,4.035,8.992,8.992v17.704C314.45,221.885,310.426,225.909,305.458,225.909z"/>
<path d="M305.458,288.451c-4.968,0-8.992-4.024-8.992-8.992v-17.704c0-4.968,4.024-8.992,8.992-8.992
	c4.968,0,8.992,4.024,8.992,8.992v17.704C314.45,284.427,310.426,288.451,305.458,288.451z"/>
<path d="M305.458,351.948c-4.968,0-8.992-4.024-8.992-8.992v-17.704c0-4.968,4.024-8.992,8.992-8.992
	c4.968,0,8.992,4.024,8.992,8.992v17.704C314.45,347.924,310.426,351.948,305.458,351.948z"/>
<path d="M305.458,414.523c-4.968,0-8.992-4.035-8.992-8.992v-17.704c0-4.968,4.024-8.992,8.992-8.992
	c4.968,0,8.992,4.024,8.992,8.992v17.704C314.45,410.488,310.426,414.523,305.458,414.523z"/>
<path d="M287.99,135.728v17.692c0,4.968-4.024,8.992-8.992,8.992c-4.968,0-8.992-4.024-8.992-8.992v-17.692
	c0-4.968,4.024-8.992,8.992-8.992C283.966,126.735,287.99,130.76,287.99,135.728z"/>
<path d="M287.99,199.214v17.704c0,4.968-4.024,8.992-8.992,8.992c-4.968,0-8.992-4.024-8.992-8.992v-17.704
	c0-4.957,4.024-8.992,8.992-8.992C283.966,190.221,287.99,194.257,287.99,199.214z"/>
<path d="M278.998,252.763c4.968,0,8.992,4.024,8.992,8.992v17.704c0,4.968-4.024,8.992-8.992,8.992
	c-4.968,0-8.992-4.024-8.992-8.992v-17.704C270.006,256.787,274.03,252.763,278.998,252.763z"/>
<path d="M278.998,316.26c4.968,0,8.992,4.024,8.992,8.992v17.704c0,4.968-4.024,8.992-8.992,8.992c-4.968,0-8.992-4.024-8.992-8.992
	v-17.704C270.006,320.284,274.03,316.26,278.998,316.26z"/>
<path d="M278.998,378.835c4.968,0,8.992,4.024,8.992,8.992v17.704c0,4.957-4.024,8.992-8.992,8.992
	c-4.968,0-8.992-4.035-8.992-8.992v-17.704C270.006,382.859,274.03,378.835,278.998,378.835z"/>
<path d="M467.038,386.715v53.628h18.266V333.244H360.165v107.098h16.759v-53.628c0-4.968,4.035-8.992,8.992-8.992h72.13
	C463.014,377.722,467.038,381.746,467.038,386.715z M489.778,315.259l-10.263-26.808H358.85v26.808h126.859H489.778z
	 M87.832,225.033c0.551-0.101,1.113-0.157,1.697-0.157c0.573,0,1.135,0.056,1.686,0.157h68.836c0.551-0.101,1.113-0.157,1.697-0.157
	c0.573,0,1.135,0.056,1.686,0.157h60.855v-26.617H32.743l-10.184,26.617L87.832,225.033L87.832,225.033z M511.247,321.048
	c1.057,2.754,0.686,5.867-0.989,8.307c-1.596,2.316-4.181,3.732-6.969,3.867v107.132c4.833,0.146,8.711,4.103,8.711,8.981
	c0,4.957-4.024,8.992-8.992,8.992h-8.711H351.172H233.283H17.985H8.992c-4.968,0-8.992-4.035-8.992-8.992
	c0-4.968,4.024-8.992,8.992-8.992V243.186c-2.799-0.135-5.384-1.551-6.992-3.878c-1.675-2.428-2.046-5.542-0.989-8.307
	l17.142-44.793c1.338-3.485,4.676-5.778,8.397-5.778h27.674V62.665c0-4.968,4.024-8.992,8.992-8.992h35.981
	c4.968,0,8.992,4.024,8.992,8.992v117.766h17.996V62.665c0-4.968,4.024-8.992,8.992-8.992h35.98c4.957,0,8.992,4.024,8.992,8.992
	v117.766h44.141v-89.53c0-4.968,4.024-8.992,8.992-8.992h116.574c4.968,0,8.992,4.024,8.992,8.992v179.565h126.859
	c3.721,0,7.059,2.293,8.397,5.778L511.247,321.048z M449.054,440.342v-44.636h-54.145v44.636H449.054z M340.865,440.342V99.893
	h-98.589v134.132v206.317H340.865z M224.291,440.342v-53.729h-53.549v53.729H224.291z M224.291,368.629v-54.235h-53.549v54.235
	H224.291z M224.291,296.409v-53.392h-53.549v53.392H224.291z M162.165,180.071v-72.309h-17.996v72.309L162.165,180.071
	L162.165,180.071z M162.165,89.777v-18.12h-17.996v18.12H162.165z M152.757,440.342v-53.729H98.522v53.729H152.757z
	 M152.757,368.629v-54.235H98.522v54.235H152.757z M152.757,296.409v-53.392H98.522v53.392H152.757z M90.204,180.071v-72.309H72.208
	v72.309L90.204,180.071L90.204,180.071z M90.204,89.777v-18.12H72.208v18.12H90.204z M80.537,440.342v-53.729h-53.56v53.729H80.537z
	 M80.537,368.629v-54.235h-53.56v54.235H80.537z M80.537,296.409v-53.392H28.382c-0.45,0.101-0.922,0.146-1.405,0.169v53.223H80.537
	z"/>
</svg>